<svg width="155" height="10" fill="none" xmlns="http://www.w3.org/2000/svg"><path d="M3.763 3.216l-3.47.367a.328.328 0 0 0-.277.215.301.301 0 0 0 .092.327c1.032.897 2.581 2.24 2.581 2.24l-.707 3.258a.31.31 0 0 0 .13.318.34.34 0 0 0 .354.018C3.68 9.3 5.499 8.31 5.499 8.31L8.531 9.96c.111.058.25.057.357-.018a.307.307 0 0 0 .128-.317l-.705-3.258 2.581-2.239a.307.307 0 0 0 .092-.329.325.325 0 0 0-.276-.214l-3.47-.368L5.798.185a.334.334 0 0 0-.598 0L3.763 3.216zM19.763 3.216l-3.47.367a.328.328 0 0 0-.277.215.301.301 0 0 0 .092.327c1.032.897 2.581 2.24 2.581 2.24l-.707 3.258a.31.31 0 0 0 .13.318.34.34 0 0 0 .354.018C19.68 9.3 21.498 8.31 21.498 8.31l3.033 1.648c.11.058.248.057.356-.018a.307.307 0 0 0 .128-.317l-.705-3.258 2.581-2.239a.307.307 0 0 0 .092-.329.325.325 0 0 0-.276-.214l-3.47-.368L21.798.185a.334.334 0 0 0-.598 0l-1.438 3.031zM35.763 3.216l-3.47.367a.328.328 0 0 0-.277.215.301.301 0 0 0 .092.327c1.032.897 2.582 2.24 2.582 2.24-.002 0-.426 1.955-.708 3.258a.31.31 0 0 0 .13.318.34.34 0 0 0 .353.018C35.68 9.3 37.5 8.31 37.5 8.31l3.032 1.648c.111.058.25.057.357-.018a.307.307 0 0 0 .128-.317l-.705-3.258 2.581-2.239c.092-.082.133-.208.092-.329a.325.325 0 0 0-.276-.214l-3.47-.368L37.8.185a.334.334 0 0 0-.6 0l-1.437 3.031zM51.763 3.216l-3.47.367a.328.328 0 0 0-.277.215.301.301 0 0 0 .092.327c1.032.897 2.582 2.24 2.582 2.24-.002 0-.426 1.955-.708 3.258a.31.31 0 0 0 .13.318.34.34 0 0 0 .353.018C51.68 9.3 53.5 8.31 53.5 8.31l3.032 1.648c.111.058.25.057.357-.018a.307.307 0 0 0 .128-.317l-.705-3.258 2.581-2.239c.092-.082.133-.208.092-.329a.325.325 0 0 0-.276-.214l-3.47-.368L53.8.185a.334.334 0 0 0-.6 0l-1.437 3.031zM67.763 3.216l-3.47.367a.328.328 0 0 0-.277.215.301.301 0 0 0 .092.327c1.032.897 2.581 2.24 2.581 2.24l-.707 3.258a.31.31 0 0 0 .13.318.34.34 0 0 0 .354.018C67.68 9.3 69.499 8.31 69.499 8.31l3.032 1.648c.111.058.25.057.357-.018a.307.307 0 0 0 .128-.317l-.705-3.258 2.581-2.239a.307.307 0 0 0 .092-.329.325.325 0 0 0-.276-.214l-3.47-.368L69.798.185a.334.334 0 0 0-.598 0l-1.438 3.031z" fill="#FF800C"/><path d="M83.763 3.216l-3.47.367a.328.328 0 0 0-.277.215.301.301 0 0 0 .092.327c1.032.897 2.581 2.24 2.581 2.24l-.707 3.258a.31.31 0 0 0 .13.318.34.34 0 0 0 .354.018C83.68 9.3 85.499 8.31 85.499 8.31l3.032 1.648c.111.058.25.057.357-.018a.307.307 0 0 0 .128-.317l-.705-3.258 2.581-2.239a.307.307 0 0 0 .092-.329.325.325 0 0 0-.276-.214l-3.47-.368L85.798.185a.334.334 0 0 0-.598 0l-1.438 3.031zM99.763 3.216l-3.47.367a.328.328 0 0 0-.277.215.301.301 0 0 0 .092.327c1.032.897 2.581 2.24 2.581 2.24l-.707 3.258a.31.31 0 0 0 .13.318.34.34 0 0 0 .354.018c1.214-.658 3.033-1.648 3.033-1.648l3.032 1.648a.346.346 0 0 0 .357-.018.306.306 0 0 0 .128-.317l-.705-3.258 2.581-2.239a.307.307 0 0 0 .092-.329.325.325 0 0 0-.276-.214l-3.471-.368-1.438-3.031a.334.334 0 0 0-.598 0l-1.438 3.031zM115.763 3.216l-3.47.367a.329.329 0 0 0-.277.215.302.302 0 0 0 .092.327c1.032.897 2.581 2.24 2.581 2.24l-.707 3.258a.309.309 0 0 0 .129.318.342.342 0 0 0 .355.018c1.214-.658 3.033-1.648 3.033-1.648l3.032 1.648a.346.346 0 0 0 .357-.018.306.306 0 0 0 .128-.317l-.705-3.258 2.581-2.239a.307.307 0 0 0 .092-.329.325.325 0 0 0-.276-.214l-3.471-.368-1.438-3.031a.334.334 0 0 0-.598 0l-1.438 3.031zM131.763 3.216l-3.47.367a.329.329 0 0 0-.277.215.302.302 0 0 0 .092.327c1.032.897 2.581 2.24 2.581 2.24l-.707 3.258a.309.309 0 0 0 .129.318.342.342 0 0 0 .355.018c1.214-.658 3.033-1.648 3.033-1.648l3.032 1.648a.346.346 0 0 0 .357-.018.306.306 0 0 0 .128-.317l-.705-3.258 2.581-2.239c.092-.082.133-.208.092-.329a.325.325 0 0 0-.276-.214l-3.471-.368-1.438-3.031a.334.334 0 0 0-.598 0l-1.438 3.031zM147.763 3.216l-3.47.367a.329.329 0 0 0-.277.215.302.302 0 0 0 .092.327c1.032.897 2.581 2.24 2.581 2.24l-.707 3.258a.309.309 0 0 0 .129.318.342.342 0 0 0 .355.018c1.214-.658 3.033-1.648 3.033-1.648l3.032 1.648a.346.346 0 0 0 .357-.018.306.306 0 0 0 .128-.317l-.705-3.258 2.581-2.239c.092-.082.133-.208.092-.329a.325.325 0 0 0-.276-.214l-3.471-.368-1.438-3.031a.334.334 0 0 0-.598 0l-1.438 3.031z" fill="#E8E8E8"/></svg>