<svg width="205" height="15" fill="none" xmlns="http://www.w3.org/2000/svg"><path d="M5.473 4.825l-5.046.55a.48.48 0 0 0-.404.322.46.46 0 0 0 .135.49c1.5 1.346 3.754 3.361 3.754 3.361-.002 0-.619 2.931-1.029 4.887a.47.47 0 0 0 .188.476.482.482 0 0 0 .515.027C5.353 13.95 8 12.468 8 12.468l4.41 2.47c.161.087.362.085.519-.027a.467.467 0 0 0 .186-.475l-1.026-4.888 3.755-3.357a.47.47 0 0 0 .134-.494.476.476 0 0 0-.402-.32c-2.02-.223-5.048-.552-5.048-.552L8.436.277A.485.485 0 0 0 7.999 0a.478.478 0 0 0-.434.277c-.838 1.819-2.092 4.548-2.092 4.548zM26.474 4.825l-5.047.55a.48.48 0 0 0-.404.322c-.06.182 0 .371.134.49 1.5 1.346 3.755 3.361 3.755 3.361-.002 0-.619 2.931-1.029 4.887a.47.47 0 0 0 .188.476.482.482 0 0 0 .515.027c1.767-.987 4.413-2.47 4.413-2.47l4.41 2.47c.161.087.363.085.519-.027a.467.467 0 0 0 .187-.475l-1.026-4.888 3.754-3.357c.134-.124.193-.313.134-.494a.476.476 0 0 0-.402-.32c-2.02-.223-5.048-.552-5.048-.552L29.436.277A.485.485 0 0 0 28.999 0a.478.478 0 0 0-.434.277c-.838 1.819-2.091 4.548-2.091 4.548zM47.474 4.825l-5.047.55a.48.48 0 0 0-.404.322c-.06.182 0 .371.134.49 1.5 1.346 3.755 3.361 3.755 3.361-.002 0-.619 2.931-1.029 4.887a.47.47 0 0 0 .188.476.482.482 0 0 0 .515.027c1.767-.987 4.413-2.47 4.413-2.47l4.41 2.47c.161.087.363.085.519-.027a.467.467 0 0 0 .187-.475l-1.026-4.888 3.754-3.357c.134-.124.193-.313.134-.494a.476.476 0 0 0-.402-.32c-2.02-.223-5.048-.552-5.048-.552L50.436.277A.485.485 0 0 0 49.999 0a.478.478 0 0 0-.434.277l-2.091 4.548zM68.474 4.825l-5.047.55a.48.48 0 0 0-.404.322c-.06.182 0 .371.134.49 1.5 1.346 3.755 3.361 3.755 3.361-.002 0-.619 2.931-1.029 4.887a.47.47 0 0 0 .188.476.482.482 0 0 0 .515.027c1.767-.987 4.413-2.47 4.413-2.47l4.41 2.47c.161.087.362.085.519-.027a.467.467 0 0 0 .187-.475l-1.026-4.888 3.754-3.357a.47.47 0 0 0 .134-.494.476.476 0 0 0-.402-.32c-2.02-.223-5.048-.552-5.048-.552L71.436.277A.485.485 0 0 0 70.999 0a.478.478 0 0 0-.434.277l-2.091 4.548zM89.474 4.825l-5.047.55a.48.48 0 0 0-.404.322c-.06.182 0 .371.135.49 1.5 1.346 3.754 3.361 3.754 3.361-.002 0-.619 2.931-1.029 4.887a.47.47 0 0 0 .188.476.482.482 0 0 0 .515.027c1.767-.987 4.413-2.47 4.413-2.47l4.41 2.47c.161.087.362.085.519-.027a.467.467 0 0 0 .187-.475l-1.026-4.888 3.754-3.357a.47.47 0 0 0 .134-.494.476.476 0 0 0-.402-.32c-2.02-.223-5.048-.552-5.048-.552L92.436.277A.485.485 0 0 0 91.999 0a.478.478 0 0 0-.434.277l-2.091 4.548z" fill="#FF800C"/><path d="M110.473 4.825l-5.046.55a.482.482 0 0 0-.404.322.46.46 0 0 0 .135.49c1.5 1.346 3.754 3.361 3.754 3.361-.002 0-.619 2.931-1.029 4.887a.472.472 0 0 0 .188.476.482.482 0 0 0 .515.027c1.767-.987 4.413-2.47 4.413-2.47l4.41 2.47a.49.49 0 0 0 .519-.027.466.466 0 0 0 .186-.475l-1.026-4.888 3.755-3.357a.47.47 0 0 0 .134-.494.475.475 0 0 0-.402-.32c-2.02-.223-5.048-.552-5.048-.552L113.436.277a.486.486 0 0 0-.437-.277.478.478 0 0 0-.434.277l-2.092 4.548zM131.473 4.825l-5.046.55a.482.482 0 0 0-.404.322.46.46 0 0 0 .135.49c1.5 1.346 3.754 3.361 3.754 3.361-.002 0-.619 2.931-1.029 4.887a.472.472 0 0 0 .188.476.482.482 0 0 0 .515.027c1.767-.987 4.413-2.47 4.413-2.47l4.41 2.47a.49.49 0 0 0 .519-.027.466.466 0 0 0 .186-.475l-1.026-4.888 3.755-3.357c.134-.124.193-.313.134-.494a.475.475 0 0 0-.402-.32c-2.02-.223-5.048-.552-5.048-.552L134.436.277a.486.486 0 0 0-.437-.277.478.478 0 0 0-.434.277l-2.092 4.548zM152.473 4.825l-5.046.55a.482.482 0 0 0-.404.322.46.46 0 0 0 .135.49c1.5 1.346 3.754 3.361 3.754 3.361-.002 0-.619 2.931-1.029 4.887a.472.472 0 0 0 .188.476.482.482 0 0 0 .515.027c1.767-.987 4.413-2.47 4.413-2.47l4.41 2.47a.49.49 0 0 0 .519-.027.466.466 0 0 0 .186-.475l-1.026-4.888 3.755-3.357c.134-.124.193-.313.134-.494a.475.475 0 0 0-.402-.32c-2.02-.223-5.048-.552-5.048-.552L155.436.277a.486.486 0 0 0-.437-.277.478.478 0 0 0-.434.277l-2.092 4.548zM173.473 4.825l-5.046.55a.482.482 0 0 0-.404.322.46.46 0 0 0 .135.49c1.5 1.346 3.754 3.361 3.754 3.361-.002 0-.619 2.931-1.029 4.887a.472.472 0 0 0 .188.476.482.482 0 0 0 .515.027c1.767-.987 4.413-2.47 4.413-2.47l4.41 2.47a.49.49 0 0 0 .519-.027.466.466 0 0 0 .186-.475l-1.026-4.888 3.755-3.357c.134-.124.193-.313.134-.494a.475.475 0 0 0-.402-.32c-2.02-.223-5.048-.552-5.048-.552L176.436.277a.486.486 0 0 0-.437-.277.478.478 0 0 0-.434.277l-2.092 4.548zM194.473 4.825l-5.046.55a.482.482 0 0 0-.404.322.46.46 0 0 0 .135.49c1.5 1.346 3.754 3.361 3.754 3.361-.002 0-.619 2.931-1.029 4.887a.472.472 0 0 0 .188.476.482.482 0 0 0 .515.027c1.767-.987 4.413-2.47 4.413-2.47l4.41 2.47a.49.49 0 0 0 .519-.027.466.466 0 0 0 .186-.475l-1.026-4.888 3.755-3.357c.134-.124.193-.313.134-.494a.475.475 0 0 0-.402-.32c-2.02-.223-5.048-.552-5.048-.552L197.436.277a.486.486 0 0 0-.437-.277.478.478 0 0 0-.434.277l-2.092 4.548z" fill="#E8E8E8"/></svg>